ffmpeg started on 2025-05-25 at 18:55:23
Report written to "D:\Convert\FFMetrics\reports\psnr_report-6.txt"
Log level: 32
Command line:
ffmpeg -hide_banner -nostdin -i "G:\\\xc0\xed\xe8\xec\xe5\\\xce\xed\xe3\xee\xe8\xed\xe3\xe8\\!_34_\xc2\xe5\xf1\xed\xe0_2024\\JamClub\\\xc1\xee\xf0\xfc\xe1\xe0 \xe2 \xef\xf0\xff\xec\xee\xec \xfd\xf4\xe8\xf0\xe5\\[JAM_CLUB]_Kenka_Dokugaku_05_[1080p][RUS][DUB]_HEVC.mkv" -i "G:\\\xc0\xed\xe8\xec\xe5\\\xce\xed\xe3\xee\xe8\xed\xe3\xe8\\!_34_\xc2\xe5\xf1\xed\xe0_2024\\JamClub\\\xc1\xee\xf0\xfc\xe1\xe0 \xe2 \xef\xf0\xff\xec\xee\xec \xfd\xf4\xe8\xf0\xe5\\[JAM_CLUB]_Kenka_Dokugaku_05_[1080p][RUS][DUB].mp4" -lavfi "[0:v]settb=AVTB,setpts=PTS-STARTPTS,format=pix_fmts=yuv420p10,fps=24000/1001,scale=1920:1080:flags=bicubic[main];[1:v]settb=AVTB,setpts=PTS-STARTPTS,format=pix_fmts=yuv420p,fps=24000/1001,scale=1920:1080:flags=bicubic[ref];[main][ref]psnr=eof_action=endall:stats_file='D\\:/Convert/FFMetrics/logs/psnr_logfile-6.txt'" -f null -
Input #0, matroska,webm, from 'G:\Аниме\Онгоинги\!_34_Весна_2024\JamClub\Борьба в прямом эфире\[JAM_CLUB]_Kenka_Dokugaku_05_[1080p][RUS][DUB]_HEVC.mkv':
  Metadata:
    COMPATIBLE_BRANDS: isomiso2avc1mp41
    MAJOR_BRAND     : isom
    MINOR_VERSION   : 512
    ENCODER         : Lavf61.7.100
  Duration: 00:23:17.38, start: -0.001000, bitrate: 1735 kb/s
  Stream #0:0: Video: hevc (Main 10), yuv420p10le(tv, bt709, progressive), 1920x1080 [SAR 1:1 DAR 16:9], 23.98 fps, 23.98 tbr, 1k tbn (default)
      Metadata:
        HANDLER_NAME    : VideoHandler
        VENDOR_ID       : [0][0][0][0]
        ENCODER         : Lavc61.19.100 libx265
        BPS             : 1536477
        DURATION        : 00:23:17.228708333
        NUMBER_OF_FRAMES: 33500
        NUMBER_OF_BYTES : 268351236
        _STATISTICS_WRITING_APP: mkvpropedit v66.0.0 ('Josie') 64-bit
        _STATISTICS_WRITING_DATE_UTC: 2025-05-25 13:34:26
        _STATISTICS_TAGS: BPS DURATION NUMBER_OF_FRAMES NUMBER_OF_BYTES
  Stream #0:1(eng): Audio: aac (LC), 48000 Hz, stereo, fltp (default)
      Metadata:
        HANDLER_NAME    : SoundHandler
        VENDOR_ID       : [0][0][0][0]
        ENCODER         : Lavc61.19.100 aac
        BPS             : 195426
        DURATION        : 00:23:17.336000000
        NUMBER_OF_FRAMES: 65501
        NUMBER_OF_BYTES : 34134506
        _STATISTICS_WRITING_APP: mkvpropedit v66.0.0 ('Josie') 64-bit
        _STATISTICS_WRITING_DATE_UTC: 2025-05-25 13:34:26
        _STATISTICS_TAGS: BPS DURATION NUMBER_OF_FRAMES NUMBER_OF_BYTES
Input #1, mov,mp4,m4a,3gp,3g2,mj2, from 'G:\Аниме\Онгоинги\!_34_Весна_2024\JamClub\Борьба в прямом эфире\[JAM_CLUB]_Kenka_Dokugaku_05_[1080p][RUS][DUB].mp4':
  Metadata:
    major_brand     : isom
    minor_version   : 512
    compatible_brands: isomiso2avc1mp41
    encoder         : Lavf60.16.100
  Duration: 00:23:17.36, start: 0.000000, bitrate: 4608 kb/s
  Stream #1:0[0x1](und): Video: h264 (High) (avc1 / 0x31637661), yuv420p(progressive), 1920x1080, 4411 kb/s, 23.98 fps, 23.98 tbr, 90k tbn (default)
      Metadata:
        handler_name    : VideoHandler
        vendor_id       : [0][0][0][0]
  Stream #1:1[0x2](eng): Audio: aac (LC) (mp4a / 0x6134706D), 48000 Hz, stereo, fltp, 191 kb/s (default)
      Metadata:
        handler_name    : SoundHandler
        vendor_id       : [0][0][0][0]
Stream mapping:
  Stream #0:0 (hevc) -> settb:default
  Stream #1:0 (h264) -> settb:default
  psnr:default -> Stream #0:0 (wrapped_avframe)
  Stream #0:1 -> #0:1 (aac (native) -> pcm_s16le (native))
Output #0, null, to 'pipe:':
  Metadata:
    COMPATIBLE_BRANDS: isomiso2avc1mp41
    MAJOR_BRAND     : isom
    MINOR_VERSION   : 512
    encoder         : Lavf61.7.100
  Stream #0:0: Video: wrapped_avframe, yuv420p10le(tv, bt709, progressive), 1920x1080 [SAR 1:1 DAR 16:9], q=2-31, 200 kb/s, 23.98 fps, 23.98 tbn
      Metadata:
        encoder         : Lavc61.19.100 wrapped_avframe
  Stream #0:1(eng): Audio: pcm_s16le, 48000 Hz, stereo, s16, 1536 kb/s (default)
      Metadata:
        HANDLER_NAME    : SoundHandler
        VENDOR_ID       : [0][0][0][0]
        _STATISTICS_TAGS: BPS DURATION NUMBER_OF_FRAMES NUMBER_OF_BYTES
        BPS             : 195426
        DURATION        : 00:23:17.336000000
        NUMBER_OF_FRAMES: 65501
        NUMBER_OF_BYTES : 34134506
        _STATISTICS_WRITING_APP: mkvpropedit v66.0.0 ('Josie') 64-bit
        _STATISTICS_WRITING_DATE_UTC: 2025-05-25 13:34:26
        encoder         : Lavc61.19.100 pcm_s16le
frame=  113 fps=0.0 q=-0.0 size=N/A time=00:00:04.71 bitrate=N/A speed= 9.2x    frame=  279 fps=269 q=-0.0 size=N/A time=00:00:11.63 bitrate=N/A speed=11.2x    frame=  484 fps=314 q=-0.0 size=N/A time=00:00:20.18 bitrate=N/A speed=13.1x    frame=  727 fps=352 q=-0.0 size=N/A time=00:00:30.32 bitrate=N/A speed=14.7x    frame=  932 fps=362 q=-0.0 size=N/A time=00:00:38.87 bitrate=N/A speed=15.1x    frame= 1173 fps=379 q=-0.0 size=N/A time=00:00:48.92 bitrate=N/A speed=15.8x    frame= 1392 fps=386 q=-0.0 size=N/A time=00:00:58.05 bitrate=N/A speed=16.1x    frame= 1593 fps=385 q=-0.0 size=N/A time=00:01:06.44 bitrate=N/A speed=16.1x    frame= 1799 fps=386 q=-0.0 size=N/A time=00:01:15.03 bitrate=N/A speed=16.1x    frame= 2024 fps=392 q=-0.0 size=N/A time=00:01:24.41 bitrate=N/A speed=16.3x    frame= 2235 fps=393 q=-0.0 size=N/A time=00:01:33.21 bitrate=N/A speed=16.4x    frame= 2450 fps=395 q=-0.0 size=N/A time=00:01:42.18 bitrate=N/A speed=16.5x    frame= 2683 fps=399 q=-0.0 size=N/A time=00:01:51.90 bitrate=N/A speed=16.6x    frame= 2931 fps=405 q=-0.0 size=N/A time=00:02:02.24 bitrate=N/A speed=16.9x    frame= 3107 fps=401 q=-0.0 size=N/A time=00:02:09.58 bitrate=N/A speed=16.7x    frame= 3259 fps=395 q=-0.0 size=N/A time=00:02:15.92 bitrate=N/A speed=16.5x    frame= 3424 fps=390 q=-0.0 size=N/A time=00:02:22.80 bitrate=N/A speed=16.3x    frame= 3636 fps=391 q=-0.0 size=N/A time=00:02:31.65 bitrate=N/A speed=16.3x    frame= 3900 fps=398 q=-0.0 size=N/A time=00:02:42.66 bitrate=N/A speed=16.6x    frame= 4164 fps=403 q=-0.0 size=N/A time=00:02:53.67 bitrate=N/A speed=16.8x    frame= 4446 fps=410 q=-0.0 size=N/A time=00:03:05.43 bitrate=N/A speed=17.1x    frame= 4728 fps=416 q=-0.0 size=N/A time=00:03:17.19 bitrate=N/A speed=17.4x    frame= 5020 fps=423 q=-0.0 size=N/A time=00:03:29.37 bitrate=N/A speed=17.6x    frame= 5203 fps=420 q=-0.0 size=N/A time=00:03:37.00 bitrate=N/A speed=17.5x    frame= 5485 fps=425 q=-0.0 size=N/A time=00:03:48.77 bitrate=N/A speed=17.7x    frame= 5733 fps=427 q=-0.0 size=N/A time=00:03:59.11 bitrate=N/A speed=17.8x    frame= 6009 fps=431 q=-0.0 size=N/A time=00:04:10.62 bitrate=N/A speed=  18x    frame= 6232 fps=431 q=-0.0 size=N/A time=00:04:19.92 bitrate=N/A speed=  18x    frame= 6468 fps=432 q=-0.0 size=N/A time=00:04:29.76 bitrate=N/A speed=  18x    frame= 6719 fps=434 q=-0.0 size=N/A time=00:04:40.23 bitrate=N/A speed=18.1x    frame= 6913 fps=432 q=-0.0 size=N/A time=00:04:48.32 bitrate=N/A speed=  18x    frame= 7133 fps=432 q=-0.0 size=N/A time=00:04:57.50 bitrate=N/A speed=  18x    frame= 7413 fps=435 q=-0.0 size=N/A time=00:05:09.18 bitrate=N/A speed=18.1x    frame= 7687 fps=438 q=-0.0 size=N/A time=00:05:20.61 bitrate=N/A speed=18.3x    frame= 7983 fps=441 q=-0.0 size=N/A time=00:05:32.95 bitrate=N/A speed=18.4x    frame= 8274 fps=445 q=-0.0 size=N/A time=00:05:45.09 bitrate=N/A speed=18.6x    frame= 8500 fps=445 q=-0.0 size=N/A time=00:05:54.52 bitrate=N/A speed=18.5x    frame= 8671 fps=442 q=-0.0 size=N/A time=00:06:01.65 bitrate=N/A speed=18.4x    frame= 8954 fps=444 q=-0.0 size=N/A time=00:06:13.45 bitrate=N/A speed=18.5x    frame= 9244 fps=448 q=-0.0 size=N/A time=00:06:25.55 bitrate=N/A speed=18.7x    frame= 9512 fps=449 q=-0.0 size=N/A time=00:06:36.72 bitrate=N/A speed=18.7x    frame= 9794 fps=451 q=-0.0 size=N/A time=00:06:48.49 bitrate=N/A speed=18.8x    frame= 9965 fps=449 q=-0.0 size=N/A time=00:06:55.62 bitrate=N/A speed=18.7x    frame=10194 fps=449 q=-0.0 size=N/A time=00:07:05.17 bitrate=N/A speed=18.7x    frame=10468 fps=451 q=-0.0 size=N/A time=00:07:16.60 bitrate=N/A speed=18.8x    frame=10742 fps=452 q=-0.0 size=N/A time=00:07:28.03 bitrate=N/A speed=18.9x    frame=10946 fps=451 q=-0.0 size=N/A time=00:07:36.53 bitrate=N/A speed=18.8x    frame=11233 fps=453 q=-0.0 size=N/A time=00:07:48.50 bitrate=N/A speed=18.9x    frame=11451 fps=453 q=-0.0 size=N/A time=00:07:57.60 bitrate=N/A speed=18.9x    frame=11569 fps=448 q=-0.0 size=N/A time=00:08:02.52 bitrate=N/A speed=18.7x    frame=11758 fps=447 q=-0.0 size=N/A time=00:08:10.40 bitrate=N/A speed=18.6x    frame=12039 fps=448 q=-0.0 size=N/A time=00:08:22.12 bitrate=N/A speed=18.7x    frame=12325 fps=450 q=-0.0 size=N/A time=00:08:34.05 bitrate=N/A speed=18.8x    frame=12598 fps=452 q=-0.0 size=N/A time=00:08:45.44 bitrate=N/A speed=18.8x    frame=12851 fps=453 q=-0.0 size=N/A time=00:08:55.99 bitrate=N/A speed=18.9x    frame=13105 fps=453 q=-0.0 size=N/A time=00:09:06.58 bitrate=N/A speed=18.9x    frame=13367 fps=454 q=-0.0 size=N/A time=00:09:17.51 bitrate=N/A speed=  19x    frame=13573 fps=453 q=-0.0 size=N/A time=00:09:26.10 bitrate=N/A speed=18.9x    frame=13805 fps=453 q=-0.0 size=N/A time=00:09:35.78 bitrate=N/A speed=18.9x    frame=14052 fps=454 q=-0.0 size=N/A time=00:09:46.08 bitrate=N/A speed=18.9x    frame=14332 fps=455 q=-0.0 size=N/A time=00:09:57.76 bitrate=N/A speed=  19x    frame=14550 fps=455 q=-0.0 size=N/A time=00:10:06.85 bitrate=N/A speed=  19x    frame=14713 fps=452 q=-0.0 size=N/A time=00:10:13.65 bitrate=N/A speed=18.9x    frame=14958 fps=453 q=-0.0 size=N/A time=00:10:23.87 bitrate=N/A speed=18.9x    frame=15217 fps=454 q=-0.0 size=N/A time=00:10:34.67 bitrate=N/A speed=18.9x    frame=15434 fps=453 q=-0.0 size=N/A time=00:10:43.72 bitrate=N/A speed=18.9x    frame=15673 fps=453 q=-0.0 size=N/A time=00:10:53.69 bitrate=N/A speed=18.9x    frame=15959 fps=455 q=-0.0 size=N/A time=00:11:05.62 bitrate=N/A speed=  19x    frame=16232 fps=456 q=-0.0 size=N/A time=00:11:17.00 bitrate=N/A speed=  19x    frame=16480 fps=456 q=-0.0 size=N/A time=00:11:27.35 bitrate=N/A speed=  19x    frame=16704 fps=456 q=-0.0 size=N/A time=00:11:36.69 bitrate=N/A speed=  19x    frame=16972 fps=457 q=-0.0 size=N/A time=00:11:47.87 bitrate=N/A speed=  19x    frame=17208 fps=457 q=-0.0 size=N/A time=00:11:57.71 bitrate=N/A speed=19.1x    frame=17398 fps=456 q=-0.0 size=N/A time=00:12:05.64 bitrate=N/A speed=  19x    frame=17616 fps=455 q=-0.0 size=N/A time=00:12:14.73 bitrate=N/A speed=  19x    frame=17838 fps=455 q=-0.0 size=N/A time=00:12:23.99 bitrate=N/A speed=  19x    frame=18081 fps=455 q=-0.0 size=N/A time=00:12:34.12 bitrate=N/A speed=  19x    frame=18247 fps=453 q=-0.0 size=N/A time=00:12:41.05 bitrate=N/A speed=18.9x    frame=18363 fps=450 q=-0.0 size=N/A time=00:12:45.89 bitrate=N/A speed=18.8x    frame=18525 fps=449 q=-0.0 size=N/A time=00:12:52.64 bitrate=N/A speed=18.7x    frame=18701 fps=447 q=-0.0 size=N/A time=00:12:59.98 bitrate=N/A speed=18.7x    frame=18917 fps=447 q=-0.0 size=N/A time=00:13:08.99 bitrate=N/A speed=18.6x    frame=19109 fps=446 q=-0.0 size=N/A time=00:13:17.00 bitrate=N/A speed=18.6x    frame=19309 fps=446 q=-0.0 size=N/A time=00:13:25.34 bitrate=N/A speed=18.6x    frame=19516 fps=445 q=-0.0 size=N/A time=00:13:33.97 bitrate=N/A speed=18.6x    frame=19762 fps=445 q=-0.0 size=N/A time=00:13:44.24 bitrate=N/A speed=18.6x    frame=19992 fps=445 q=-0.0 size=N/A time=00:13:53.83 bitrate=N/A speed=18.6x    frame=20201 fps=445 q=-0.0 size=N/A time=00:14:02.55 bitrate=N/A speed=18.6x    frame=20430 fps=445 q=-0.0 size=N/A time=00:14:12.10 bitrate=N/A speed=18.6x    frame=20707 fps=446 q=-0.0 size=N/A time=00:14:23.65 bitrate=N/A speed=18.6x    frame=20952 fps=446 q=-0.0 size=N/A time=00:14:33.87 bitrate=N/A speed=18.6x    frame=21183 fps=446 q=-0.0 size=N/A time=00:14:43.50 bitrate=N/A speed=18.6x    frame=21465 fps=447 q=-0.0 size=N/A time=00:14:55.26 bitrate=N/A speed=18.7x    frame=21753 fps=448 q=-0.0 size=N/A time=00:15:07.28 bitrate=N/A speed=18.7x    frame=21936 fps=447 q=-0.0 size=N/A time=00:15:14.91 bitrate=N/A speed=18.7x    frame=22123 fps=447 q=-0.0 size=N/A time=00:15:22.71 bitrate=N/A speed=18.6x    frame=22377 fps=447 q=-0.0 size=N/A time=00:15:33.30 bitrate=N/A speed=18.6x    frame=22640 fps=448 q=-0.0 size=N/A time=00:15:44.27 bitrate=N/A speed=18.7x    frame=22916 fps=449 q=-0.0 size=N/A time=00:15:55.78 bitrate=N/A speed=18.7x    frame=23198 fps=450 q=-0.0 size=N/A time=00:16:07.54 bitrate=N/A speed=18.8x    frame=23459 fps=450 q=-0.0 size=N/A time=00:16:18.43 bitrate=N/A speed=18.8x    frame=23595 fps=448 q=-0.0 size=N/A time=00:16:24.10 bitrate=N/A speed=18.7x    frame=23787 fps=448 q=-0.0 size=N/A time=00:16:32.11 bitrate=N/A speed=18.7x    frame=24054 fps=448 q=-0.0 size=N/A time=00:16:43.25 bitrate=N/A speed=18.7x    frame=24288 fps=448 q=-0.0 size=N/A time=00:16:53.01 bitrate=N/A speed=18.7x    frame=24427 fps=447 q=-0.0 size=N/A time=00:16:58.80 bitrate=N/A speed=18.6x    frame=24593 fps=445 q=-0.0 size=N/A time=00:17:05.73 bitrate=N/A speed=18.6x    frame=24835 fps=446 q=-0.0 size=N/A time=00:17:15.82 bitrate=N/A speed=18.6x    frame=25053 fps=446 q=-0.0 size=N/A time=00:17:24.91 bitrate=N/A speed=18.6x    frame=25323 fps=446 q=-0.0 size=N/A time=00:17:36.18 bitrate=N/A speed=18.6x    frame=25471 fps=445 q=-0.0 size=N/A time=00:17:42.35 bitrate=N/A speed=18.6x    frame=25745 fps=446 q=-0.0 size=N/A time=00:17:53.78 bitrate=N/A speed=18.6x    frame=25910 fps=444 q=-0.0 size=N/A time=00:18:00.66 bitrate=N/A speed=18.5x    frame=26054 fps=443 q=-0.0 size=N/A time=00:18:06.66 bitrate=N/A speed=18.5x    frame=26239 fps=442 q=-0.0 size=N/A time=00:18:14.38 bitrate=N/A speed=18.4x    frame=26427 fps=442 q=-0.0 size=N/A time=00:18:22.22 bitrate=N/A speed=18.4x    frame=26601 fps=441 q=-0.0 size=N/A time=00:18:29.48 bitrate=N/A speed=18.4x    frame=26788 fps=440 q=-0.0 size=N/A time=00:18:37.28 bitrate=N/A speed=18.4x    frame=26948 fps=439 q=-0.0 size=N/A time=00:18:43.95 bitrate=N/A speed=18.3x    frame=27167 fps=439 q=-0.0 size=N/A time=00:18:53.09 bitrate=N/A speed=18.3x    frame=27400 fps=439 q=-0.0 size=N/A time=00:19:02.80 bitrate=N/A speed=18.3x    frame=27617 fps=439 q=-0.0 size=N/A time=00:19:11.85 bitrate=N/A speed=18.3x    frame=27754 fps=437 q=-0.0 size=N/A time=00:19:17.57 bitrate=N/A speed=18.2x    frame=27917 fps=436 q=-0.0 size=N/A time=00:19:24.37 bitrate=N/A speed=18.2x    frame=28095 fps=436 q=-0.0 size=N/A time=00:19:31.79 bitrate=N/A speed=18.2x    frame=28343 fps=436 q=-0.0 size=N/A time=00:19:42.13 bitrate=N/A speed=18.2x    frame=28630 fps=437 q=-0.0 size=N/A time=00:19:54.10 bitrate=N/A speed=18.2x    frame=28905 fps=438 q=-0.0 size=N/A time=00:20:05.57 bitrate=N/A speed=18.3x    frame=29097 fps=437 q=-0.0 size=N/A time=00:20:13.58 bitrate=N/A speed=18.2x    frame=29322 fps=437 q=-0.0 size=N/A time=00:20:23.01 bitrate=N/A speed=18.2x    frame=29543 fps=437 q=-0.0 size=N/A time=00:20:32.18 bitrate=N/A speed=18.2x    frame=29789 fps=437 q=-0.0 size=N/A time=00:20:42.44 bitrate=N/A speed=18.2x    frame=30030 fps=438 q=-0.0 size=N/A time=00:20:52.50 bitrate=N/A speed=18.2x    frame=30239 fps=437 q=-0.0 size=N/A time=00:21:01.21 bitrate=N/A speed=18.2x    frame=30449 fps=437 q=-0.0 size=N/A time=00:21:09.97 bitrate=N/A speed=18.2x    frame=30710 fps=438 q=-0.0 size=N/A time=00:21:20.86 bitrate=N/A speed=18.3x    frame=30997 fps=438 q=-0.0 size=N/A time=00:21:32.83 bitrate=N/A speed=18.3x    frame=31260 fps=439 q=-0.0 size=N/A time=00:21:43.80 bitrate=N/A speed=18.3x    frame=31547 fps=440 q=-0.0 size=N/A time=00:21:55.77 bitrate=N/A speed=18.3x    frame=31762 fps=440 q=-0.0 size=N/A time=00:22:04.74 bitrate=N/A speed=18.3x    frame=32043 fps=440 q=-0.0 size=N/A time=00:22:16.46 bitrate=N/A speed=18.4x    frame=32265 fps=440 q=-0.0 size=N/A time=00:22:25.71 bitrate=N/A speed=18.4x    frame=32497 fps=440 q=-0.0 size=N/A time=00:22:35.39 bitrate=N/A speed=18.4x    frame=32747 fps=441 q=-0.0 size=N/A time=00:22:45.82 bitrate=N/A speed=18.4x    frame=33025 fps=441 q=-0.0 size=N/A time=00:22:57.41 bitrate=N/A speed=18.4x    frame=33261 fps=442 q=-0.0 size=N/A time=00:23:07.26 bitrate=N/A speed=18.4x    [Parsed_psnr_10 @ 000001898f9a9800] PSNR y:48.040085 u:51.606896 v:51.258218 average:48.905037 min:35.586992 max:inf
[out#0/null @ 0000018983364580] video:14395KiB audio:262004KiB subtitle:0KiB other streams:0KiB global headers:0KiB muxing overhead: unknown
frame=33500 fps=442 q=-0.0 Lsize=N/A time=00:23:17.22 bitrate=N/A speed=18.4x    
